<?xml version="1.0" encoding="UTF-8"?>
<svg xmlns="http://www.w3.org/2000/svg" xmlns:xlink="http://www.w3.org/1999/xlink" width="150px" height="150px" viewBox="0 0 150 150" version="1.1">
<g id="surface1">
<path style=" stroke:none;fill-rule:nonzero;fill:rgb(0%,0%,0%);fill-opacity:1;" d="M 74.042969 2.058594 C 71.679688 2.242188 69.914062 4.304688 69.902344 6.53125 C 69.886719 8.414062 71.125 10.15625 73.007812 10.867188 C 73.117188 11.585938 73.191406 12.640625 72.988281 13.882812 C 72.796875 15.042969 72.421875 15.96875 72.109375 16.601562 C 71.085938 17.105469 69.554688 17.71875 67.609375 18.019531 C 65.773438 18.300781 64.210938 18.207031 63.109375 18.058594 C 63.015625 18.027344 62.429688 17.820312 62.152344 17.191406 C 61.863281 16.523438 62.160156 15.925781 62.203125 15.847656 C 63.445312 14.890625 64.078125 13.402344 63.828125 11.988281 C 63.484375 10.058594 61.515625 8.433594 59.429688 8.816406 C 57.179688 9.230469 55.953125 11.769531 56.578125 13.722656 C 57.175781 15.585938 59.222656 16.191406 59.40625 16.246094 C 59.550781 16.378906 59.9375 16.78125 60.042969 17.425781 C 60.191406 18.3125 59.695312 18.96875 59.605469 19.082031 C 58.824219 19.660156 57.605469 20.414062 55.964844 20.902344 C 54.921875 21.210938 53.984375 21.328125 53.234375 21.367188 C 52.511719 21.03125 51.527344 20.480469 50.527344 19.59375 C 49.542969 18.722656 48.890625 17.828125 48.476562 17.160156 C 49.480469 15.628906 49.652344 13.761719 48.871094 12.292969 C 47.710938 10.117188 44.53125 8.980469 42.320312 10.492188 C 40.304688 11.871094 39.976562 14.855469 41.367188 16.757812 C 42.371094 18.132812 44.183594 18.816406 46.027344 18.53125 C 46.828125 19.414062 47.71875 20.5625 48.535156 21.996094 C 49.925781 24.449219 50.527344 26.75 50.804688 28.378906 C 52.847656 27.023438 55.96875 25.203125 60.046875 23.738281 C 63.070312 22.65625 74.898438 18.605469 88.121094 23.335938 C 90.605469 24.226562 94.015625 25.738281 97.699219 28.394531 C 98.273438 26.640625 99.011719 24.707031 99.972656 22.65625 C 100.792969 20.902344 101.65625 19.328125 102.5 17.9375 C 104.464844 18.660156 106.660156 17.886719 107.675781 16.164062 C 108.789062 14.277344 108.1875 11.738281 106.28125 10.570312 C 104.421875 9.433594 101.996094 10.027344 100.746094 11.632812 C 99.667969 13.023438 99.585938 15 100.570312 16.570312 C 100.402344 17.277344 100.003906 18.535156 98.992188 19.789062 C 98.125 20.871094 97.160156 21.503906 96.546875 21.839844 C 95.617188 21.851562 93.925781 21.753906 92.0625 20.894531 C 90.609375 20.222656 89.609375 19.339844 89.015625 18.726562 C 88.972656 18.488281 88.921875 18.066406 89.039062 17.5625 C 89.160156 17.039062 89.40625 16.671875 89.554688 16.480469 C 89.785156 16.425781 91.753906 15.921875 92.496094 14.109375 C 93.273438 12.210938 92.292969 9.863281 90.511719 9.042969 C 89.707031 8.675781 88.71875 8.597656 87.632812 8.945312 C 85.773438 9.535156 84.492188 11.722656 84.980469 13.664062 C 85.347656 15.121094 86.578125 15.886719 86.925781 16.085938 C 86.972656 16.277344 87.027344 16.621094 86.925781 17.03125 C 86.765625 17.683594 86.320312 18.058594 86.167969 18.175781 C 85.195312 18.304688 83.546875 18.394531 81.628906 17.859375 C 80.089844 17.429688 78.9375 16.757812 78.203125 16.246094 C 77.746094 15.660156 77.097656 14.671875 76.703125 13.308594 C 76.382812 12.207031 76.34375 11.242188 76.371094 10.570312 C 78.019531 9.652344 79.003906 7.957031 78.878906 6.234375 C 78.71875 3.921875 76.578125 1.863281 74.042969 2.058594 Z M 50.882812 34.304688 C 52.550781 33.5 55.105469 32.359375 58.332031 31.296875 C 63.667969 29.542969 76.460938 25.339844 89.757812 30.21875 C 91.710938 30.933594 94.53125 32.164062 97.703125 34.304688 C 97.566406 33.675781 97.449219 32.949219 97.390625 32.136719 C 97.320312 31.21875 97.34375 30.394531 97.402344 29.691406 C 94.582031 27.941406 92.023438 26.804688 90.03125 26.054688 C 74.152344 20.089844 59.792969 25.785156 57.714844 26.648438 C 54.742188 27.878906 52.472656 29.222656 51.085938 30.113281 C 51.132812 30.710938 51.15625 31.386719 51.125 32.125 C 51.089844 32.933594 51 33.664062 50.882812 34.304688 Z M 47.679688 35.960938 C 46.753906 32.230469 41.652344 30.074219 37.984375 30.308594 C 30.609375 30.785156 25.253906 37.921875 26.664062 44.871094 C 27.191406 47.460938 29.34375 53.023438 32.816406 49.808594 C 35.167969 47.632812 32.382812 42.824219 32.714844 39.953125 C 33.246094 35.40625 39.667969 34.132812 43.519531 34.890625 C 44.929688 35.164062 46.238281 35.824219 47.679688 35.960938 Z M 100.003906 35.960938 C 103.773438 34.996094 108.214844 33.886719 111.789062 36 C 113.878906 37.234375 114.917969 39.609375 114.730469 41.957031 C 114.554688 44.183594 112.378906 49.527344 115.054688 50.765625 C 117.957031 52.113281 118.9375 50.148438 119.851562 47.824219 C 122.195312 41.886719 120.75 35.140625 114.757812 31.988281 C 109.523438 29.230469 102.175781 30.011719 100.003906 35.960938 Z M 91.121094 38.050781 C 90.726562 37.621094 87.167969 33.914062 81.777344 34.449219 C 77.363281 34.886719 74.796875 37.859375 74.292969 38.46875 C 73.507812 37.671875 70.460938 34.753906 65.527344 34.304688 C 61.09375 33.898438 57.839844 35.734375 56.816406 36.367188 C 60.324219 36.335938 63.105469 36.988281 64.917969 37.554688 C 66.542969 38.0625 68.652344 38.746094 70.941406 40.429688 C 72.601562 41.652344 73.746094 42.949219 74.472656 43.90625 C 75.113281 42.992188 76.089844 41.773438 77.5 40.5625 C 77.984375 40.148438 79.550781 38.847656 81.269531 38.074219 C 85.304688 36.257812 89.675781 37.554688 91.121094 38.046875 Z M 85.242188 41.535156 C 87.976562 40.949219 89.984375 41.1875 91.335938 41.535156 C 93.644531 42.128906 94.632812 43.183594 97.253906 43.390625 C 98.867188 43.515625 99.574219 43.199219 100.820312 43.097656 C 102.820312 42.9375 105.738281 43.375 109.617188 46.152344 C 107.539062 43.128906 105.335938 42 103.683594 41.535156 C 100.753906 40.710938 99.488281 41.949219 95.558594 40.945312 C 92.777344 40.234375 92.070312 39.269531 90.023438 39.375 C 87.941406 39.480469 86.304688 40.597656 85.246094 41.535156 Z M 84.1875 60.714844 C 84.261719 60.285156 84.414062 59.667969 84.765625 59 C 86.214844 56.261719 89.578125 55.519531 90.679688 55.277344 C 92.832031 54.800781 93.464844 55.238281 97.078125 55.160156 C 99.4375 55.113281 101.355469 54.871094 102.609375 54.675781 C 101.746094 54.242188 98.777344 52.714844 97.730469 51.359375 C 97.101562 50.550781 96.332031 49.445312 96.332031 49.445312 C 95.988281 48.953125 95.96875 48.898438 95.816406 48.703125 C 95.15625 47.847656 94.46875 47.285156 93.878906 46.8125 C 93.878906 46.8125 92.660156 45.828125 91.371094 45.15625 C 88.917969 43.871094 82.507812 42.371094 77.402344 45.828125 C 76.660156 46.328125 75.636719 47.144531 74.628906 48.433594 C 70.882812 42.636719 61.351562 41.589844 55.894531 45.707031 C 54.222656 46.972656 53.09375 48.667969 53.09375 48.667969 C 52.078125 50.132812 52.058594 50.808594 51.332031 51.78125 C 50.605469 52.753906 49.253906 53.917969 46.5 54.539062 C 47.078125 54.898438 48.050781 55.421875 49.339844 55.703125 C 52.660156 56.429688 53.894531 54.628906 57.359375 54.882812 C 57.957031 54.925781 61.933594 55.273438 63.96875 58.269531 C 64.714844 59.363281 64.972656 60.476562 65.070312 61.210938 C 65.503906 60.8125 65.996094 60.398438 66.546875 59.976562 C 67.027344 59.613281 67.496094 59.289062 67.941406 59.007812 C 66.933594 60.242188 65.570312 62.234375 64.847656 64.941406 C 64.328125 66.890625 64.351562 68.402344 64.34375 68.988281 C 64.296875 71.605469 63.191406 75.777344 58.238281 82.441406 C 58.492188 82.753906 58.820312 83.089844 59.230469 83.410156 C 60.535156 84.421875 61.945312 84.667969 62.703125 84.738281 C 61.886719 84.898438 60.554688 85.035156 59.027344 84.632812 C 58.398438 84.46875 57.863281 84.246094 57.425781 84.019531 C 57.289062 84.632812 57.164062 85.28125 57.058594 85.957031 C 57.007812 86.273438 56.964844 86.582031 56.929688 86.882812 C 57.386719 87.175781 58.046875 87.515625 58.886719 87.71875 C 60.71875 88.15625 62.253906 87.65625 62.894531 87.402344 C 62.203125 87.816406 60.875 88.476562 59.097656 88.558594 C 58.164062 88.601562 57.367188 88.472656 56.777344 88.320312 C 56.757812 88.460938 56.734375 88.65625 56.71875 88.894531 C 56.695312 89.261719 56.667969 89.808594 56.800781 90.480469 C 56.839844 90.695312 56.914062 90.984375 57.039062 91.316406 C 57.589844 91.402344 58.46875 91.476562 59.515625 91.257812 C 60.472656 91.054688 61.199219 90.6875 61.660156 90.410156 C 61.253906 90.800781 60.535156 91.402344 59.476562 91.808594 C 58.667969 92.121094 57.941406 92.210938 57.4375 92.234375 C 57.589844 92.484375 57.816406 92.824219 58.132812 93.1875 C 60.757812 96.164062 65.472656 95.660156 65.960938 95.601562 C 68.816406 95.261719 72.71875 93.578125 73.597656 90.667969 C 73.804688 89.976562 73.617188 89.796875 73.863281 85.90625 C 73.929688 84.816406 74 83.925781 74.046875 83.351562 C 74.0625 83.109375 74.039062 82.761719 73.828125 82.457031 C 73.730469 82.3125 73.484375 82.148438 73 81.828125 C 72.617188 81.574219 72.371094 81.429688 72.089844 81.117188 C 72.015625 81.035156 71.960938 80.960938 71.925781 80.914062 C 69.246094 82.667969 66.574219 82.535156 65.738281 81.980469 C 64.707031 81.300781 64.238281 80.296875 64.238281 80.296875 C 63.796875 79.242188 64.042969 78.277344 64.210938 77.605469 C 64.640625 75.90625 65.707031 74.800781 66.308594 74.269531 C 66.210938 75.050781 66.109375 75.832031 66.007812 76.613281 C 66.9375 77.195312 67.773438 77.574219 68.421875 77.828125 C 73.78125 79.925781 79.050781 78.257812 80.964844 77.664062 C 81.71875 77.429688 82.613281 77.109375 83.59375 76.660156 C 83.746094 75.871094 83.898438 75.082031 84.054688 74.296875 C 84.449219 74.683594 85.347656 75.679688 85.566406 77.171875 C 85.597656 77.375 85.679688 78.050781 85.507812 78.90625 C 85.308594 79.867188 84.878906 80.570312 84.710938 80.796875 C 83.796875 82.019531 80.980469 82.234375 77.960938 80.972656 C 77.902344 81.03125 77.847656 81.09375 77.792969 81.152344 C 77.464844 81.480469 77.164062 81.710938 76.957031 81.859375 C 76.53125 82.160156 76.300781 82.246094 76.097656 82.53125 C 75.894531 82.824219 75.851562 83.144531 75.847656 83.363281 C 75.828125 83.957031 75.808594 84.835938 75.84375 85.90625 C 75.921875 88.414062 75.953125 89.671875 76.375 90.6875 C 77.722656 93.964844 82.632812 94.699219 82.863281 94.730469 C 87.757812 95.398438 91.289062 91.867188 91.71875 91.421875 C 91.128906 91.238281 90.308594 90.90625 89.464844 90.292969 C 88.875 89.867188 88.429688 89.421875 88.109375 89.042969 C 88.535156 89.320312 89.058594 89.613281 89.675781 89.871094 C 90.578125 90.253906 91.40625 90.449219 92.066406 90.554688 C 92.296875 90.308594 92.589844 89.945312 92.835938 89.453125 C 93.125 88.875 93.238281 88.34375 93.289062 87.980469 C 92.765625 88.078125 91.695312 88.207031 90.441406 87.824219 C 89.0625 87.402344 88.207031 86.585938 87.84375 86.195312 C 88.347656 86.488281 89.035156 86.816406 89.886719 87.035156 C 91.367188 87.417969 92.632812 87.300781 93.394531 87.167969 C 93.472656 86.714844 93.539062 86.019531 93.394531 85.195312 C 93.269531 84.496094 93.03125 83.945312 92.835938 83.566406 C 92.484375 83.773438 91.734375 84.152344 90.710938 84.199219 C 89.636719 84.25 88.824219 83.90625 88.453125 83.726562 C 88.679688 83.789062 89.640625 84.027344 90.660156 83.515625 C 91.546875 83.070312 91.929688 82.332031 92.039062 82.097656 C 85.929688 75.898438 84.59375 71.75 84.605469 69.042969 C 84.609375 68.070312 84.765625 66.5625 84.101562 64.550781 C 83.570312 62.945312 82.796875 61.914062 82.460938 59.808594 C 82.285156 58.691406 82.3125 57.78125 82.320312 57.777344 C 82.328125 57.777344 82.304688 58.1875 82.484375 58.664062 C 82.535156 58.796875 82.660156 59.085938 83.199219 59.710938 C 83.433594 59.980469 83.761719 60.332031 84.195312 60.714844 Z M 45.859375 49.167969 C 46.945312 48.226562 48.007812 47.636719 48.757812 47.277344 C 47.949219 47.117188 46.683594 46.964844 45.230469 47.265625 C 42.054688 47.929688 41.34375 50.066406 37.78125 52.628906 C 34.769531 54.792969 32.214844 56.628906 28.964844 56.566406 C 27.605469 56.539062 25.074219 56.164062 22.515625 57.582031 C 22.238281 57.738281 22.019531 57.878906 21.875 57.976562 C 22.363281 57.964844 23.121094 57.964844 24.042969 58.0625 C 26.558594 58.332031 28.242188 59.105469 28.960938 59.363281 C 32.71875 60.71875 39.183594 58.53125 42.007812 54.683594 C 43.332031 52.882812 43.503906 51.203125 45.855469 49.167969 Z M 129.539062 57.976562 C 129.175781 57.441406 127.90625 57.238281 127.257812 57.125 C 123.125 56.394531 120.195312 56.425781 116.351562 54.304688 C 112.542969 52.199219 109.964844 48.457031 105.480469 47.59375 C 105 47.503906 102.324219 47.171875 102.144531 47.3125 C 102.785156 48.148438 103.347656 48.988281 104.09375 49.730469 C 105.71875 51.339844 108.394531 53.582031 110.226562 55.027344 C 114.414062 58.328125 117.769531 59.808594 123.335938 59.34375 C 125.414062 59.167969 127.476562 58.222656 129.539062 57.976562 Z M 45.367188 57.113281 C 44.859375 57.554688 43.96875 58.304688 42.808594 59.152344 C 31.960938 67.066406 22.132812 65.160156 18.0625 72.390625 C 17.339844 73.675781 17.023438 75.082031 16.46875 76.402344 C 18.21875 76.023438 19.570312 74.6875 21.257812 74.125 C 21.988281 73.882812 22.785156 73.71875 23.550781 73.617188 C 23.84375 73.578125 23.859375 73.320312 24.191406 73.792969 C 23.207031 74.847656 21.480469 76.972656 20.539062 80.164062 C 19.484375 83.722656 19.957031 86.730469 20.277344 88.152344 C 20.570312 86.714844 21.113281 84.726562 22.199219 82.554688 C 25.78125 75.402344 33.0625 70.652344 37.871094 67.511719 C 39.410156 66.511719 41.777344 65.054688 43.527344 62.15625 C 44.695312 60.21875 45.160156 58.351562 45.367188 57.113281 Z M 133.53125 76.730469 C 133.363281 75.132812 132.875 72.664062 131.300781 70.191406 C 128.785156 66.226562 124.921875 64.503906 122.402344 63.421875 C 117.214844 61.183594 114.828125 62.109375 109.65625 59.210938 C 108.082031 58.328125 106.890625 57.449219 106.140625 56.859375 C 106.1875 57.308594 106.277344 57.980469 106.449219 58.789062 C 106.886719 60.84375 108.777344 68.105469 114.65625 71.292969 C 117.628906 72.90625 118.554688 71.808594 122.0625 73.921875 C 124.4375 75.351562 126.042969 77.074219 127.007812 78.308594 C 129.652344 81.6875 130.441406 85.179688 130.710938 87.027344 C 131.019531 85.109375 131.164062 82.519531 130.425781 79.644531 C 129.386719 75.597656 126.839844 71.9375 127.007812 71.84375 C 127.054688 71.816406 127.210938 72.132812 127.605469 72.441406 C 128.476562 73.125 129.523438 73.03125 130.007812 73.070312 C 130.886719 73.144531 132.105469 73.847656 133.53125 76.730469 Z M 47.878906 65.933594 C 47.828125 66.554688 47.914062 67.179688 48.09375 68.402344 C 48.332031 70.0625 48.621094 71.40625 48.835938 72.316406 C 49.035156 71.417969 49.289062 70.691406 49.5 70.164062 C 50.039062 68.816406 50.414062 68.503906 50.640625 68.351562 C 51.0625 68.066406 51.503906 67.988281 51.800781 67.964844 C 51.617188 70.625 52.1875 72.347656 52.753906 73.441406 C 53.214844 74.328125 53.746094 74.894531 53.933594 75.96875 C 54.1875 77.425781 53.648438 78.746094 53.136719 79.648438 C 58.433594 76.757812 59.964844 74.007812 60.34375 71.972656 C 60.566406 70.769531 60.535156 68.988281 61.582031 66.644531 C 62.257812 65.128906 63.097656 64.015625 63.703125 63.308594 C 63.445312 63.382812 59.886719 64.367188 57.296875 62.070312 C 55.976562 60.902344 55.542969 59.445312 55.394531 58.789062 C 54.492188 58.933594 51.910156 59.46875 49.925781 61.679688 C 49.445312 62.214844 48.066406 63.75 47.878906 65.933594 Z M 102.144531 70.460938 C 102.992188 66.671875 102.394531 63.003906 100.355469 61.183594 C 99.671875 60.574219 98.269531 59.675781 96.582031 59.074219 C 95.582031 58.714844 94.710938 58.539062 94.085938 58.449219 C 93.964844 59.058594 93.539062 60.75 92.003906 61.992188 C 90.199219 63.453125 87.585938 63.710938 85.246094 62.703125 C 85.726562 63.402344 86.386719 64.476562 86.917969 65.894531 C 87.582031 67.671875 87.464844 68.4375 87.871094 69.847656 C 88.644531 72.53125 90.355469 74.261719 91.371094 75.292969 C 93.410156 77.355469 95.5625 78.394531 96.832031 78.898438 C 95.953125 77.023438 95.980469 75.644531 96.152344 74.753906 C 96.488281 73 97.609375 72.28125 97.859375 70.25 C 98.011719 69.007812 97.851562 67.964844 97.695312 67.285156 C 98.171875 67.320312 99.230469 67.464844 100.296875 68.199219 C 101.453125 68.996094 101.960938 70.027344 102.144531 70.460938 Z M 46.179688 65.160156 C 45.136719 66.535156 43.421875 68.570312 40.929688 70.625 C 38.617188 72.53125 37.285156 73.09375 35.09375 74.777344 C 35.09375 74.777344 31.257812 77.722656 28.648438 81.394531 C 25.386719 85.984375 22.714844 93.710938 25.125 101.640625 C 26.632812 106.605469 29.621094 109.964844 31.683594 111.851562 C 30.882812 110.503906 29.785156 108.285156 29.285156 105.351562 C 28.804688 102.546875 29.097656 100.390625 29.339844 98.601562 C 29.605469 96.625 29.972656 94.089844 31.515625 91.246094 C 32.273438 89.851562 33.09375 88.789062 33.71875 88.066406 C 33.464844 88.570312 33.136719 89.273438 32.804688 90.132812 C 32.578125 90.710938 31.894531 92.546875 31.613281 94.335938 C 31.152344 97.246094 31.765625 99.929688 32.285156 101.570312 C 32.316406 99.925781 32.574219 97.53125 33.691406 94.941406 C 34.386719 93.339844 35.113281 92.34375 36.480469 90.433594 C 38.398438 87.742188 40.914062 84.21875 42.003906 82.550781 C 43.394531 80.410156 45.171875 77.125 46.4375 72.4375 C 45.730469 73.367188 44.519531 74.726562 42.664062 75.90625 C 40.945312 77 39.324219 77.523438 38.21875 77.789062 C 39.488281 76.546875 40.90625 74.949219 42.269531 72.960938 C 44.25 70.070312 45.445312 67.3125 46.179688 65.160156 Z M 117.0625 76.550781 C 114.703125 75.21875 112.898438 75.339844 109.734375 72.980469 C 108.027344 71.703125 106.828125 70.382812 106.070312 69.445312 C 106.253906 70.75 106.777344 73.191406 108.515625 75.699219 C 110.011719 77.863281 111.769531 79.148438 112.859375 79.820312 C 111.726562 79.722656 109.675781 79.390625 107.519531 78.101562 C 104.804688 76.484375 103.449219 74.261719 102.90625 73.238281 C 102.871094 74.105469 102.878906 75.300781 103.085938 76.695312 C 103.257812 77.839844 103.859375 81.617188 106.363281 84.761719 C 109.246094 88.382812 111.742188 87.515625 114.195312 90.789062 C 115.886719 93.042969 116.308594 95.589844 116.398438 97.410156 C 116.828125 96.230469 117.308594 94.441406 117.277344 92.246094 C 117.257812 90.949219 117.0625 89.828125 116.839844 88.9375 C 118.507812 91.292969 119.007812 93.308594 119.164062 94.703125 C 119.675781 99.375 116.863281 102.238281 117.488281 108.3125 C 117.59375 109.339844 117.769531 110.167969 117.890625 110.6875 C 117.9375 108.75 118.285156 106.003906 119.824219 103.242188 C 120.957031 101.207031 121.894531 100.671875 122.933594 98.828125 C 124.9375 95.257812 124.640625 91.53125 124.523438 90.066406 C 124.175781 85.640625 122.027344 79.359375 117.0625 76.554688 Z M 48.625 88.605469 C 49.378906 86.472656 49.476562 84.28125 49.488281 84.0625 C 49.570312 81.984375 49.222656 80.273438 48.898438 79.132812 C 48.707031 80.378906 48.289062 82.386719 47.25 84.628906 C 44.054688 91.519531 38.660156 92.726562 36.292969 98.808594 C 35.6875 100.363281 35.046875 102.832031 35.433594 106.324219 C 36.988281 102.441406 38.90625 99.835938 40.339844 98.191406 C 43.867188 94.15625 47.089844 92.957031 48.625 88.605469 Z M 98.785156 81.792969 C 98.574219 82.816406 98.367188 84.460938 98.726562 86.402344 C 99.40625 90.0625 101.648438 92.378906 102.566406 93.21875 C 104.898438 95.359375 106.140625 94.835938 108.628906 96.65625 C 110.15625 97.777344 112.167969 99.792969 113.628906 103.664062 C 113.800781 102.398438 113.890625 100.40625 113.164062 98.183594 C 112.097656 94.933594 109.839844 92.929688 108.222656 91.527344 C 105.308594 88.996094 104.015625 89.199219 101.851562 86.875 C 100.148438 85.046875 99.261719 83.109375 98.785156 81.792969 Z M 101.214844 98.796875 C 98.832031 96.246094 97.765625 93.367188 97.234375 91.371094 C 96.742188 92.550781 96.15625 94.398438 96.191406 96.695312 C 96.210938 97.953125 96.265625 99.847656 97.40625 101.894531 C 98.59375 104.019531 100.3125 105.160156 101.214844 105.671875 C 100.53125 105.683594 97.703125 105.667969 95.257812 103.550781 C 93.265625 101.820312 92.679688 99.695312 92.507812 98.941406 C 92.082031 101.464844 91.980469 104.863281 93.824219 107.804688 C 95.085938 109.816406 96.113281 109.792969 97.167969 111.558594 C 99.5625 115.566406 97.402344 120.964844 96.09375 124.238281 C 95.15625 126.578125 93.136719 130.675781 88.804688 134.640625 C 91.023438 134.289062 95.015625 133.300781 98.484375 130.148438 C 101.554688 127.351562 102.882812 124.0625 104.097656 121.046875 C 104.949219 118.9375 105.269531 117.449219 105.414062 116.671875 C 105.847656 114.3125 105.796875 112.296875 105.664062 110.890625 C 106.539062 111.722656 107.625 113 108.398438 114.78125 C 108.855469 115.832031 109.492188 117.289062 109.273438 119.199219 C 109.15625 120.242188 108.824219 121.066406 108.558594 121.597656 C 109.140625 121.351562 109.949219 120.929688 110.6875 120.183594 C 114.105469 116.730469 113.449219 108.949219 109.644531 104.613281 C 106.9375 101.53125 104.546875 102.367188 101.214844 98.796875 Z M 49.074219 106.890625 C 49.949219 105.320312 50.855469 103.34375 51.53125 100.988281 C 53.011719 95.816406 52.667969 91.296875 52.203125 88.507812 C 51.441406 90.578125 50.054688 93.792969 47.542969 97.195312 C 42.878906 103.515625 39.257812 103.832031 37.664062 108.933594 C 37.476562 109.53125 35.957031 114.667969 38.589844 119.660156 C 39.394531 121.191406 40.371094 122.289062 41.109375 123.003906 C 40.496094 119.910156 40.332031 116.007812 42.628906 113.46875 C 42.855469 113.214844 44.101562 112.046875 44.390625 112.339844 C 44.5625 116.703125 44.746094 121.359375 46.792969 125.328125 C 49.457031 130.488281 53.378906 133.175781 54.945312 134.222656 C 57.621094 136.011719 60.152344 136.972656 61.9375 137.503906 C 60.929688 136.625 59.523438 135.273438 58.105469 133.429688 C 56.578125 131.445312 52.378906 125.925781 52.398438 119.105469 C 52.410156 114.316406 54.570312 113.617188 54.949219 106.769531 C 55.09375 104.148438 54.902344 101.96875 54.710938 100.503906 C 54.425781 101.390625 53.804688 102.925781 52.4375 104.417969 C 51.210938 105.761719 49.894531 106.503906 49.074219 106.890625 Z M 84.425781 98.640625 C 80.082031 94.9375 71.53125 94.398438 67.003906 98.507812 C 66.296875 99.148438 64.84375 100.507812 64.636719 102.605469 C 64.46875 104.273438 65.070312 106.507812 66.902344 107.664062 C 67.894531 108.285156 68.90625 108.382812 69.472656 108.390625 C 69.230469 108.246094 68.796875 107.945312 68.496094 107.40625 C 68.164062 106.808594 68.171875 106.246094 68.179688 105.730469 C 68.183594 105.355469 68.234375 104.75 68.507812 104.050781 C 68.675781 104.742188 69.074219 105.945312 70.089844 107.050781 C 72.269531 109.425781 75.40625 109.296875 75.964844 109.273438 C 76.910156 109.234375 79.113281 109.140625 80.683594 107.40625 C 81.777344 106.195312 82.015625 104.796875 82.078125 104.183594 C 82.207031 104.449219 82.449219 105.058594 82.34375 105.828125 C 82.285156 106.257812 82.140625 106.59375 82.019531 106.816406 C 82.144531 106.753906 82.449219 106.585938 82.660156 106.230469 C 82.933594 105.777344 82.871094 105.328125 82.847656 105.207031 C 82.949219 105.371094 83.097656 105.667969 83.128906 106.058594 C 83.167969 106.625 82.933594 107.042969 82.78125 107.308594 C 82.28125 108.175781 81.449219 108.554688 81.101562 108.6875 C 81.765625 108.609375 83.230469 108.347656 84.527344 107.210938 C 86.097656 105.832031 86.992188 103.546875 86.445312 101.515625 C 86.265625 100.851562 85.8125 99.820312 84.429688 98.640625 Z M 62.136719 106.324219 C 62.105469 107.453125 61.976562 109.113281 61.480469 111.050781 C 60.820312 113.644531 60.101562 114.410156 59.507812 116.3125 C 58.3125 120.164062 59.1875 123.664062 59.476562 124.765625 C 60.472656 128.5625 62.644531 130.996094 64.050781 132.566406 C 64.828125 133.4375 66.160156 134.566406 68.828125 136.820312 C 72.933594 140.296875 74.148438 141.003906 75.316406 142.96875 C 76.441406 144.859375 76.8125 146.710938 76.953125 147.953125 C 77.828125 146.121094 79.222656 143.480469 81.3125 140.542969 C 84.28125 136.382812 85.226562 136.425781 87.050781 133.6875 C 91.921875 126.375 90.515625 118.035156 90.394531 117.375 C 89.769531 113.976562 88.398438 111.230469 87.039062 109.195312 C 87.871094 114.820312 86.882812 117.902344 85.730469 119.699219 C 85.257812 120.4375 84.121094 121.953125 83.464844 124.351562 C 83.058594 125.839844 83.179688 126.417969 82.867188 127.835938 C 82.574219 129.171875 81.933594 131.082031 80.359375 133.273438 C 80.695312 130.625 80.523438 127.757812 78.746094 125.828125 C 77.738281 124.734375 77.15625 124.960938 75.457031 123.523438 C 73.648438 121.996094 72.730469 120.414062 71.039062 117.433594 C 70.335938 116.191406 69.4375 114.484375 68.539062 112.371094 C 67.570312 116.179688 67.785156 119.261719 68.066406 121.113281 C 68.316406 122.75 68.601562 124.496094 69.785156 126.417969 C 71.148438 128.628906 72.960938 129.878906 74.027344 130.496094 C 72.242188 129.929688 69.199219 128.625 67.15625 125.652344 C 65.628906 123.429688 65.238281 121.109375 64.945312 119.386719 C 64.398438 116.144531 65.035156 115.1875 64.527344 112.351562 C 64.074219 109.816406 63.066406 107.792969 62.136719 106.324219 Z M 49.5 70.769531 L 37.902344 46.933594 C 40.164062 45.308594 42.097656 44.726562 43.476562 44.503906 C 45.832031 44.128906 47.164062 44.699219 49.644531 43.84375 C 51.175781 43.316406 51.691406 42.742188 52.792969 42.152344 C 54.558594 41.207031 57.40625 40.445312 62.089844 41.441406 C 58.953125 39.503906 56.476562 39.351562 54.777344 39.582031 C 51.757812 39.992188 51.105469 41.632812 47.101562 42.28125 C 44.265625 42.738281 43.226562 42.136719 41.394531 43.050781 C 39.53125 43.976562 38.492188 45.652344 37.902344 46.933594 Z M 49.5 70.769531 "/>
</g>
</svg>
